<svg xmlns="http://www.w3.org/2000/svg" viewBox="0 0 128 128">
  <!-- Background -->
  <circle cx="64" cy="64" r="60" fill="#4285f4" />
  
  <!-- AI/Chat Bubble -->
  <path d="M40 48a8 8 0 0 1 8-8h48a8 8 0 0 1 8 8v24a8 8 0 0 1-8 8H68l-16 16V80h-4a8 8 0 0 1-8-8V48z" fill="#ffffff" />
  
  <!-- AI Text -->
  <text x="48" y="70" font-family="Arial, sans-serif" font-size="24" font-weight="bold" fill="#4285f4">AI</text>
  
  <!-- Sound Wave Lines (for voice features) -->
  <path d="M24 64h-8M16 52h-4M16 76h-4" stroke="#ffffff" stroke-width="3" stroke-linecap="round" />
  
  <!-- Brain Icon (simplified) -->
  <circle cx="94" cy="32" r="12" fill="#ffffff" />
  <path d="M88 38c2 4 6 4 12 0" stroke="#4285f4" stroke-width="2" fill="none" />
  <path d="M94 44v8" stroke="#ffffff" stroke-width="2" />
</svg>